/* XPM */
static char *_644343204576[] = {
/* columns rows colors chars-per-pixel */
"80 80 256 2 ",
"   c #010B0C",
".  c #010606",
"X  c #03130B",
"o  c #010C13",
"O  c #050D1A",
"+  c #021415",
"@  c #01141B",
"#  c #021B1C",
"$  c #0C1B1C",
"%  c #091716",
"&  c #131C1C",
"*  c #141818",
"=  c #131508",
"-  c #02221D",
";  c #09251D",
":  c #13221D",
">  c #18211E",
",  c #15301F",
"<  c #011D23",
"1  c #0B1D23",
"2  c #011E2B",
"3  c #041723",
"4  c #131D22",
"5  c #181C24",
"6  c #05182E",
"7  c #221D2A",
"8  c #032325",
"9  c #0C2324",
"0  c #01242C",
"q  c #0B242B",
"w  c #022B2D",
"e  c #0C2B2D",
"r  c #052A25",
"t  c #142323",
"y  c #1A2424",
"u  c #14242A",
"i  c #142B2B",
"p  c #1B2C2C",
"a  c #192728",
"s  c #01322C",
"d  c #07342B",
"f  c #19332D",
"g  c #032631",
"h  c #022C33",
"j  c #0B2C33",
"k  c #072B38",
"l  c #132D33",
"z  c #1B2C32",
"x  c #172A37",
"c  c #013334",
"v  c #0C3335",
"b  c #013A36",
"n  c #03343B",
"m  c #0B343B",
"M  c #023B3B",
"N  c #0B3A3D",
"B  c #0D3A35",
"V  c #143234",
"C  c #1C3333",
"Z  c #14353B",
"A  c #1C343B",
"S  c #133A3B",
"D  c #1B3B3C",
"F  c #183A35",
"G  c #232C2C",
"H  c #242728",
"J  c #23322D",
"K  c #262C33",
"L  c #243433",
"P  c #2A3435",
"I  c #233936",
"U  c #2B3B35",
"Y  c #253B3B",
"T  c #2B3C3C",
"R  c #27353A",
"E  c #323D3C",
"W  c #343639",
"Q  c #342B33",
"!  c #25221E",
"~  c #01423D",
"^  c #06443A",
"/  c #19433C",
"(  c #13412E",
")  c #24413D",
"_  c #2C423E",
"`  c #2A463A",
"'  c #33423D",
"]  c #37443C",
"[  c #0C3C43",
"{  c #073945",
"}  c #143C43",
"|  c #1C3B42",
" . c #173B46",
".. c #0E344A",
"X. c #233C42",
"o. c #2B3C42",
"O. c #263B48",
"+. c #353D43",
"@. c #232C49",
"#. c #024443",
"$. c #0B4345",
"%. c #014B45",
"&. c #0B4B4B",
"*. c #06474A",
"=. c #13434B",
"-. c #1C444C",
";. c #164748",
":. c #02534B",
">. c #0B534D",
",. c #02564A",
"<. c #17544B",
"1. c #044755",
"2. c #174A53",
"3. c #035C54",
"4. c #0B5C54",
"5. c #015D5A",
"6. c #0A5654",
"7. c #175757",
"8. c #244343",
"9. c #2C4343",
"0. c #2C4945",
"q. c #24444B",
"w. c #2C4B4B",
"e. c #29474A",
"r. c #334443",
"t. c #3A4443",
"y. c #344946",
"u. c #34454A",
"i. c #3B454A",
"p. c #344B4B",
"a. c #3B4C4B",
"s. c #3A4A45",
"d. c #2B524A",
"f. c #3C514D",
"g. c #36524B",
"h. c #284B54",
"j. c #354C53",
"k. c #275659",
"l. c #3C5354",
"z. c #385858",
"x. c #036256",
"c. c #03635B",
"v. c #0B645B",
"b. c #06695B",
"n. c #15645C",
"m. c #106651",
"M. c #31645B",
"N. c #195866",
"B. c #0E556B",
"V. c #295B65",
"C. c #355B64",
"Z. c #2D5368",
"A. c #0C6B63",
"S. c #066764",
"D. c #136B63",
"F. c #196967",
"G. c #0B7469",
"H. c #16756B",
"J. c #186977",
"K. c #0D7574",
"L. c #167976",
"P. c #096B76",
"I. c #256868",
"U. c #376569",
"Y. c #26746A",
"T. c #296875",
"R. c #356A74",
"E. c #267675",
"W. c #367977",
"Q. c #30716D",
"!. c #43494B",
"~. c #42514C",
"^. c #434C52",
"/. c #435453",
"(. c #445B5B",
"). c #485859",
"_. c #545A5A",
"`. c #49625E",
"'. c #58675B",
"]. c #475B62",
"[. c #535C68",
"{. c #496667",
"}. c #536868",
"|. c #497677",
" X c #597576",
".X c #4F6E72",
"XX c #697575",
"oX c #61565E",
"OX c #453D3A",
"+X c #198677",
"@X c #258679",
"#X c #36857C",
"$X c #6F8779",
"%X c #58817B",
"&X c #87827F",
"*X c #187588",
"=X c #0E728E",
"-X c #297786",
";X c #30778A",
":X c #0D7298",
">X c #4C7B89",
",X c #6F7A82",
"<X c #867884",
"1X c #048498",
"2X c #19868B",
"3X c #3A8785",
"4X c #39968B",
"5X c #2F8E90",
"6X c #3BA595",
"7X c #0E92AA",
"8X c #3594AC",
"9X c #15AABA",
"0X c #33A9B2",
"qX c #4E928F",
"wX c #698888",
"eX c #738F93",
"rX c #4AA59B",
"tX c #4C95A7",
"yX c #49A9A7",
"uX c #58AAA6",
"iX c #53B5B0",
"pX c #6FAEAF",
"aX c #709E9E",
"sX c #6FC7BB",
"dX c #5FCAB6",
"fX c #12B6CB",
"gX c #29B3C9",
"hX c #1D9DC0",
"jX c #50B4CC",
"kX c #6EB3C6",
"lX c #16C3D9",
"zX c #2EC5D7",
"xX c #54CBD5",
"cX c #71CFD0",
"vX c #73D5E9",
"bX c #77EAF6",
"nX c #66DFEA",
"mX c #8B8E8E",
"MX c #94AEAC",
"NX c #B1B1B5",
"BX c #C3B9B8",
"VX c #CABCC7",
"CX c #8FCDCE",
"ZX c #ABCFD0",
"AX c #8CD8E9",
"SX c #96F9FF",
"DX c #8DECF5",
"FX c #A7FEFF",
"GX c #B5FEFF",
"HX c #ABE6F0",
"JX c #8FE3D9",
"KX c #D1D1D1",
"LX c #CBF1F4",
"PX c #F3F0F3",
"IX c #E4D5D8",
"UX c #9EBFBE",
/* pixels */
"=.U. .j | < (.l.i.R ' ).y.r.9 9 p i ' s.] ] ~.!.i.+.R o.u.9.o.i +.+.p.) ` ( d.( _ E E t.h ;.2.h.0.f . f f.` ] ' Y f i D .Xw.-.z.9.R u l V 0  ..XU.} 8 z.0.f.`.) ",
"[ [ =.| 8 # {.a.r.R a.).y.r.p f % % ` ] ] ] s.] ~.1 mXXXu l.9.9 G ).p.9.` I f g.0.y.!.i.8.-.x R T C mX}.J g.I ` ] ) ; e 0.{.U.j.9.r.R l V -.C.|.h...v {..X`.s.` ",
"[ n h.z.e 8 ].l.9.r.).f.r.I i : % . P L J ] f J R o..Xj.0.z.e f +.o.j 8 K 7 a V ..C.@.@.P $ !.!.f.% KXMX. ] ).' 0._ i 0.X..X Xz.T a.w.8 V C.>X|. .h h.wX X`.` r.",
"n =.k.h.Z q Y p.o.T ).a.y.T C t H   K y , J + f l.o.z O.z.w.f f i.R k 3 @.6 k Z.g  .+.^.E * OX! t.I ` F U s.] U ` L 9 (.{.z.z.w.9.p.p.# Z {.|.z.=.8 .XwXl.(.a.J ",
"n } -.h.| V A r.T R ).p.f.p.9.G @.o 7 5 9 i X I j.8.0.0.(.w.# i 4 6 6 ..pXAXkXkX>Xk @.+.` , ! = G ~.. . ~.U ] t.` J # y. Xw.8.8.p.0.w.3 -.|.{.-.S S wX.XY l.~.: ",
"n n v h.j A l.o.r.U a.r.y.y.I t Q O H K D V + 8.F g.) y.{.`.g.D j.O |.HXkXtX8XvXZX>X6 +.F X '.'.: t.4 P E L ).] J s.Y a. X0.{. X9.) 9.# h.{.k.N 8 C. Xl.p.a.U & ",
"} =.2 m 8 q w.Y r.R r.s.T _ 9 % 5 u K A | N 8 ;.w.) ) }.(.}.eXF 3 0 kXCX>XkXAX-XkXkX3 z.` X XX].t T o + ^.~.P > ' ).a.`.{.8. XwXY 8.p.+ z.U./ v 8 z.{.f.`.E G & ",
"C.aXm v | V X.a.o.Y _ f.T y.i u 5 O.O.m N M c N q.) y.` `.}.t V @ =.CX>XLXLXLXUXqXaXO.V S B 6 6 o.i + a P Y i.L './.a `.~.I f.9.Y z.`.+ l.U.S V v -.z.{.).G U & ",
"} =.} v j q ].u.r.R r.r.r.l.I 1 u @ m { { 7.7.=./ y.s.' )./.1 q 3 h.>XZXMXKXNXNXNX[.).).@.k Z.@.@.x x 1 r.Y r.a.~.r.p `.T p.p.g.9.8.z.z.e.z.d.B v F 8.`.i.L P = ",
"n { v k l e {.p.r.Y s.r.r.f.I - + j } { 2.;XT.2.w.0.t.] E R q 3 6 j.eXLXBX&XwXIXKX}.,X[.>X-X=X>X .| A l e.C o.l.Y p L }.0.T Y p.p.9.(.w.;.z.C.d e d 9.l.r.L K * ",
"n m v v v l ].u.Y L t.r.9.y.C 9 # Z ..1.-XT.6.{ e.0.U ] U 1 2 g 6 wXeXeXmXmX$X&X<X<X<X@.Z.:X:X=X2...Z | | 1 i p.9.C w.(.j.0.p.j.u.j.{.p.F `.U./ e / g.(.y.P > t ",
"[ [ m Z j A (.y.Y P r.T T r.L 9 e | { 6.N.N.V.V.w.f.s.G   # k.2.Z.HXZX>X%X'. X$X<XMX<X;X:X:XjXhXB.{ m ..[ 0 j 9.j.Y p.R T 9.p.A 9.].}.p.9.C.g./ d f z.l./.r.$ & ",
"n v k m e X.z.p.r.R r.r._ p.T f   e [ ....N.>XZ.X.L p $ f aXCXN.pXFXJXrXZXHXKXCXMXCXHX;X=XhXhX7XT.2...{ { m  .h.l.D ].j.p.O.u.o.u.[.j.A `.`.( d.r r 0.g.)./.y & ",
"n n n Z 2 D j.y.y.R ' _ _ y.Y C r.x m 2.B.;XT.g D R H - M.pXyXH.K.DXSXiXpXZXCXuXtX8XtX:X1X:X7XjX8XN.{ 2.{ {  .h.h.l .X X.Xl.l..X/.).a q }..XI z./ f ) f.`.(.L % ",
"[ [ m Z # A w.r.p.R r.r.9.0.L 9 wXi.6 ..Z.-X2...F X . . k.sXyX0X1.-XvXvXsXAXvXAXAXAX;X:X1X:X:X1X5X1.{ N.2.{ [ U.h.A ].C.j./.j.].y.o.u a z.`./ d.d.B d y.(.).a.t ",
"n k v Z # X.p.l./.T r.s.y.y.C : . 6 @.k ..Z.g k X ; ZXaX; #XcXxXS.c rXcXJXFXSXDXvXkX;XB.0XjXS.P.B.2 g ;XR.N.N.>X>XU.C.Z q j.o.z 5 t z F 8.) e F ) r + I p.l.'.P ",
"} 2  .j < 8.8.{.r.Y s.s._ 0.D 9 X G X.j x A 0 0 d.Q.sXpX% I.W.pXuXqXH.:.3X4XyXyXJ.*.N.pXqX;X&.3XiXiX2XJ.T.J.J...B.1.;X=.g +.+.Q 5 K p 9 V S v m D j eXj.R a./.l.",
"j.l A e 8 V C a.f.J /.R L `.F ; a $ t A I l F 2.rXn.( uX<.<.>.k.qXpXqX4.:.:.#.s %.E.uXqXM $.2.tX5XcXDXJ.g B.*X*X*X*X*X..g a 7 Q W !.X.q j j k S q.O.{.O.l C l.(.",
"C.| g j e e I p.s.J U _ I _ 0.0.Y o * R e b n.Q.4.#XrXQ.M w k.V.7.;X6.Y.I.H.E.Y.#XqXQ.M =.c h.aXD.L.5XcXxX*XP.*X8X;X;X2.q 5 Q 7 W +.R e e j v  .j k 1 q 1 + j._.",
"C.O.q l i i y.s.p }.IXXXt (.9 9.1 z 4 @ b m.Y.H.#XqXqXn.b <.0 8 I.Q.&.V.F.6.6.n.D.7.#.c $.h U.pXW.v.A.cXSXvX8X1.;XtX;XO.x K Q 7 5 G a u e v { } v -.0 Z u # z f.",
"z.z.j i 9 i p.E H _.NX'.a ~.: + . u.; - #XrX+Xb.6XqX^ <.~ M B d.8 c <.M #.%.#.#.M c w *.w { =.M *.E.L.iXjXxXSX:.P.-XV. .x u . Q 7 5 5 u j v n n n  .v Z i i $ W ",
"k.h.V 9 1 a i.U E U . H ' U ).$ K + B %X#XdXdX^ m.,.>.b <.s - , &.0 &.c &.6.M %.M >.7.~ Q.<.#.~ &.:.D.S.2XcXnXDXiX{ { C.6 a 5 a H 5 & 1 8 v N c w c c r 8 z o P ",
"e.;.e e y K i.] E ] !.' r.'./.t q h.m.#XdX6X@X+Xb.^ ~ ;.w B m.CXuX6.b #.7.4.#.6.I.4.:.- sXCXrXW.M F.4.A.iXdX0XxXDXB.0 U.A O.i.K Q 7 a u q k [ N $.{ &.m r a o K ",
"k.S e a p P E E !.U ] T T a.f X q -.m.6X6X+Xb.,.%.>.b c h.+ rXdXsXqX4.4.:.D.6.:.:.6.D.%.$.JXsXm.>.%.6.D.x.G.6X5XcXpXb <.M.9.J _.!.+.+.o.V v [ b M w b B e 1 & P ",
"d.d F 1 5 W +.!.E ' L I f f g.{.{.qX4XrXx.G.m.%.~ $.m ;.X Y.dX+X4.4.3.x.v.3.3.3.3.v.D.:.x.H.4XyXv.s 4.:.F.H.3.5X+XcXuXX 7.d.' s.^.P ).3 o } w [ c c b N V # 4 W ",
"<.e V # a +.i.t.t.T ) - ; - {.wXqXcX6X6X3.x.:.#.M ^ w w @XJXrX@XH.H.b.b.v.v.x.4.H.x.rXrXcX@X6XcXiXb M &.2.7.4.E.+X@X4Xn.<.- T i.J p.4 ,X{.o =.h M b b b r 3 5 Q ",
"^ B V % +.!.!.i.y.; r b d.; ) m.H.@X:.F.v.,.%.#.n q.;.c +X6Xb.b.K.b.b.b.c.x.x.b.x.x.+XG.@X+X+X+XJXx.w &.$.7.7.E.G.@X@X@Xn.^ q.V p.0.e XX}.o [ =.M M b w e i W W ",
"B S j # +.).!.R f B - ^ #XaXqX( uXY.:.6.6.%.#.b g 0 m E.6X+X+X+XG.G.b.b.x.5.x.b.x.3.,.3.G.+XG.b.rX@Xb b $.=.&.Q.4XH.G.D.F.#.v d d 0.d.# o q } 3 M b b b -.l.^.W ",
"c N j # i.^.+.i r s ( m.pXJXsX#XrXm.n.<.s ~ ~ c [ N W.uXyX+X4X+X+X+XG.G.b.x.c.x.x.H.6Xb.+X+X+X+XD.E.#.c c n b 6.Y.,.H.x.I.qXsXpX/ / / M.j.q |  .n c c ;.{.{.^.J ",
"c N k 1 +.+.i.u s - m.#XdX#XiXJX#Xr b ;.c M $.&.c I.pXyX2X+X2X6X+XG.G.G.b.c.x.b.3.E.4Xx.,.b.b.G.H.7.*.&.c c #.M %.<.H.~ E.iXsXqXm.<./ d.A l A 0 [ h M M.|.{.Y * ",
"b B v u o.O.^.A - >.@X+X@X+XrXsXpXW.b ^ / N 2.7.:.G.4XG.x.S.S.K.x.x.c.b.x.5.4.b.D.3.%.H.3.x.,.5XE.7.&.1.&.&.#.M ^ #.s #XiX4XrXuXpXM.<.v q l 6 q.N h $.Q.|.9.4 * ",
"M c e q K K ].X.r n.Q.Y.m.m.,.( s %X^ s $.h.C.s n.H.L.+Xx.x.H.x.x.x.x.b.b.x.6.4.n.4.v.,.b.b.5.4.6.7.&.c I.7.c N &.M s uXY.^ rX4XpXW.d.w 3 l V k m s -.|.{.p @ H ",
"j [ 8 3 l u.).9.` , d ^ ^ M.<.^ w c n k C.h.h *.I.4Xv.H.,.qXrX^ ,.,.v.n.,.,.D.4.:.:.4.6.4.n.4.6.7.7.7.N { k.V.[ n { R.W.<.;.7.<.k.U.k.B r b 2 [ b c h.|.(.a 4 * ",
"m [ e e u._.{.T ( /.X ( z.B ( ( W.N }  . .m { k.&.n.v.D.,.,.4.~ ^ H.,.^ ,.n.>.4.>.4.n.>.:.>.>.>.&.$.qX|.0 { 2.C.n w &.~ ^ ^ k.d.D 3 ;.k.0 0 $.$.=.w q..X(.K * 5 ",
"k } h l u.].[.P : > $XmXMX'.- w.wX=...k.C.Z.-.Z.I.#.6.:.^ >.7.^ ^ %.%.~ M F.I.~ c %.>.*.~ #.#.&.<.c C.2.k 2...-.2.M c c d.^ ( d R O o. Xq.< m g n 8 k..X(.r.$ X ",
"k [ k j X.p.^.W ! XXKXKXBXmXt.a v k.h.z.j.h.k k.7.&.7.%.~ <.k.k.n.>.7.>.~ Q.W.b >.7.I.7.<.>.&.&.>.k.V.g  .j.k h.k.h.0 s c s / }.mX,X!.+.X.@ h | } w j.{.0.T & f ",
"m N c V | y.).OXW NXPXPXPXNXOX  D M.z.w.| h.j -.C.I.=.I.;XC.q.C.7.7.{ c { $.M h 6.2.7.7.7.I.V.V.k.|.k.m q.q. .h.C.C.k.-.v # .XZXKXIX<XOX^.4 q x  .2 -. Xz.T + : ",
"N m 8 v u./.).+.mXBXKXPXPXIXmXW }.8.9.h.O.z.h.6 C.Z.k.R.2. .Z.=.M g #.k.<.*.$.M h h k h m =.2.V.V.[ 0 | O.| O.@.l o.U.e.F 1 MXPXPXPXVXoX5 4 X.X.e e Z {.w.p.t   ",
"N v < e 8.y.i.W oXNXBXKXmXNXNX. p.r w.p.| | O.g 3 g C...O 3 m k 2.h R.pX>XU.>XR.2.=.{ { h h n n { h k e.q.@.j.j.X.Y X.j.8. XPXPXIXIXIX<X7 5 z 1 l 8.e g.e I f.s.",
"} S r e z L +.E OXE &X&X= !.5 P _ ) g.C l.z.O.x k O.k o aX|.O h.2.=.R.>XV.[ 2.V. .-.2.=.[ { m { c N N j j.].O.].o.A . l.a MXNX).IXBXNXXX5 a u I u l l eX(.; l.eX",
"Z e 8 C p.p.+.r.U J E y t.).$ f _ 0.9._ 0.e.| j O.q.g {.ZXZ.2 ..=.0 V.qXqXZ.2 3 0 [ [ ..g n n $.&.n B | u.O.o.+.o.u z p.a.J 4 5 XXmX= ] ~.= I l l V F j.t I s.% ",
"l l q o.u.I r.r.s.` a.I f.z.- f ' ` 0.9.e.8.Z g q g 2 h...6 0 h g g V.R.V.[ =.R.h h 2 n n n 0 g c c c Z O.j.j.y.+.R T ^.^.i.+.E U s.OXJ , f 8 8 e l q i C : ' ~.",
"q x # X.r.C a.r.s.g.`.0.z.M.; F ` _ 9.0.0.| v h  .-.-.=.2 2.;Xb #.c { <.7.I.7.$.c M { c =.=.$.b c M c c | j.a.T R R T r.+.!.^.!.` J  X_ + r 8 S l V q $ p $ ] ).",
"z u @ L 9.Y p.r.y.` z.y.z.g.d ` y.' _ 0.;.B h v n =. .@ =.7.W.~ *.{ #.c c M c b #.{ *.b N.7.7.$.#.&.<.c v 9.p.Y p p Y _ R T t.+.g.` '.z.f X 8 V F 0 V p t f ] > ",
"A 3 z 9.9.r._ a._ 0.f.0.g.0.r 9.y.' _ ) F c c B } ;.=.c <.b x.b.%.:.n.4.%.%.*.n.E.~ c 7.qXn.&.:.#.6.>.b c 8.p.y.) i ` (.y.T t.r.9._ p.`.{.q 8 j j q l Y i ' ' J ",
"C @ g.(.r.p.I a.r.y.y.9.g.T 9 w.s.i.0.D B s b $.{ $.b M b +XH.x.%.#.~ %.4.6.~ ~ W.4.4.E.qXn.%.%.,.,.>.^ s F 9.y.` t _ './._ t.t.a.y.f.p..Xz.l | e A i C I U : `.",
"V # p.].l.s._ r.r.r.r.t.f.R u t.t.i.p./ c s M ^ ^ <.b ~ ^ iX6X^ A.D.m.,.,.3.,.n.4.F.n.n.%.%.~ %.x.,.%.^ ( d F ` ` ; Y `.f.T 9.o.a.i.+.R j.{.x A V A V a U t X f.",
"A + q l./.f.l.E ' r.+.i.^.R 5 u.+.a.p./ c b ~ #.%.n.4.^ ^ +XG.x.3.D.H.n.H.Y.m.H.D.H.m.n.%.,.,.H.v.,.^ >.&.B F 0._ ; Y (.t.Y p.R +.i.o.l.).].e.x x 2 Y u f f , : ",
"t t L r.y.r.p.t.y.0.L p.).C t r.i.i.o.Z b M ~ ~ 3.3.x.3.~ ^ ^ x.m.,.n.F.:.v.@X3X%.v.v.:.~ 5.v.D.~ 4.%.4.<.s / w.) # i._.Y T 9._ ] s.a._ p.j.].x x u 7 x P y : f ",
"p : J ` _ t.y.r.T $ T r. XR 1 r.i.y.9.Z c ~ :.3.,.b.G.x.:.%.:.%.v.n.#X3XD.4.D.D.v.5.:.3.H.H.A.3.3.m.>.4.>.b b / 9.1 u._.T T _ T ` ] f.` D Y j.q x x x K L y : f ",
"p t J T T ] p.y.}.eXP XX/.$ I Y i.u.8.B b %.4.F.3.G.H.b.5.5.:.:.:.,.n.H.6.,.3.:.H.v.v.K.H.A.5.x.H.D.D.n.n.&.b ;.e.9 T /.t.9.) _ ~.).`.g.w.w.{.| x x 7 K J y : a ",
", y R ' ' s.a.y.).wX/.a.# a C j.p.9.D v M >.D.H.G.A.P.G.A.5.5.v.3.:.:.v.v.D.H.H.H.D.H.H.c.:.5.L.D.v.H.v.,.&.c N h.e z a.r._ 9.` ~.~.l.y.d.h.C.D l x x x J : ; , ",
"& y U t.t.a./.f.R T (.; i 9 o.p.p.8.d c #.7.H.L.L.G.K.K.K.S.5.x.3.b.H.E.H.A.H.H.A.S.5.5.S.S.K.K.S.A.L.S.5.6.c $.q.e 9 9.a.T _ 0.s.t.p.0.8.S z.S q l i a a t : : ",
": p T s.s.f./.f.a.r.o.Y 9.$ 9.9.w.S w b &.n.H.H.K.+XK.+XK.+XP.5.x.c.x.S.S.x.5.x.x.S.c.S.P.L.H.S.S.K.L.K.F.4.#.^ / l 3 T l.T Y y.s.^.`.l.q.S M.z.8 a u t t t % : ",
": J T y.] a.).a./.L R r.a Y i z./ c w ~ 7.F.J.L.K.L.+XK.K.*XK.S.G.c.:.3.c.S.c.5.v.P.K.G.S.S.S.5.P.2XK.S.S.6.1.M c v # o.`._ I y.a.!.).g.` B z.z.8 i p t y t & & ",
"a J ' ' _ s./.a.I a.Y l.I + p.0.B s s ^ n.F.L.L.2XK.P.*X2XK.L.2Xx.S.c.S.S.x.S.H.K.G.S.S.5.5.S.P.5X0XL.S.P.S.F.7.h j 3 y.}.0.C t.^.W T 9.w.0.M.0.- p a y y y & 9 ",
". y _ t.t.s.f.y.T p.T p.y.+ T D B r b n.I.E.E.L.L.P.L.K.P.L.L.*XL.G.S.b.x.c.A.S.5.S.5.5.5.S.5.L.8X5X4XjX5XN.3X7.N Z 2 R a.{.).s.!.i.W i.u.j.(.C $ L z y z 4 1 1 ",
"$X~.p U ~./.y.r.T r.Y p.p.$ p.8.w b $.7.I.E.J.5.L.L.*XP.S.K.K.K.L.K.K.G.c.S.S.S.5.S.5.5.A.J.L.-XH.P.-XyX2X5.F.&.N + l u 9 Y `.).+._.i.!.s.T _ z t K 5 5 o.o.O.O.",
"XXs.I ] /.a.r.p.r.T I a.o.i (.8.w $.<.I.Q.F.B.5.E.L.J.5.1.S.S.S.G.H.L.G.A.H.G.G.A.F.5.v.J.5.H.E.F.;XF.J.E.{ { k.U.wX1 z.a.a.(.y.o.[.a.o.t.z & $ y z x 6 O.h.h.Z.",
"  J a.a.' t.y.t.r.R I u.C a ).D c } 7.R.Q.*.*.F.-XE.S.M c 5.5.A.x.A.b.b.A.H.G.D.D.A.3.J.F.< 1.F.I.-XF.T.E.N.I.V.C.wXo u.{.{./._ i.).r.T p.y.P G y K K k  .O.2.Z.",
"% Y ~.' _ s.r.C p.R I r.i i p.l 3 [ k.Q.7.g h N.I.E.D.{ #.v.5.4.x.b.3.3.x.v.,.3.:.5.6.E.F.# { N.1.;X{ 0 2.M # c q.O O . u I u.p.f.` 9.9._ /.).i.K a @.q h.N.J.-X",
"U ' t.a.~.a.r.I r.r._ r.9 p Y r o } R.R.=.w g { 1.N.I.:.7.D.#.#.x.x.3.3.A.3.:.3.6.D.4.F.Y.*.6.6.U.C. .2 2 w 0 @  .@ 3 o 1 K R z.M.d.(.g._ /._./.o.6 x 2 T.-X*X*X",
"J J t././.] 9.r.Y s.T 9.9 C p 1 @ { T.C.=.{ h g g 2.I.4.7.4.~ ~ m.b.x.m.n.%.~ 4.F.7.6.D.I.N.%.M 0 k g 8 n m 8 0 3 A o o.o.l.u.{.|.{. XM.l.`./.^.+.u ..2 T.-X*X1X",
"C U y.f.t.P Y r.L p._ T 9 z t # 8 g -.V.{ k h g 2 6.V.7.<.<.^ m.4.m.,.m.4.s - #.<.$.M 2.7.<.0 w k 3 0 g 8 0 w k x @ O.^.o.)./.(.z.z.g.) l.(.K R O.g  .g *X2X1X9X",
"I ) r.r.T Y T T  Xa.# I # : a L 3 2 g m h g g h g { U.=.3 g S -.<.m.m.^ d X + 1 x 3 O g | m h h 8 8 8 g 0 g g e j O A [.R i.a +.E > ! . ` ] X s.9.3 n N.=X7XfXlX",
"f I _ _ T ' i.r.r.XXf.+ 9 U E G A l e 2 0 g k k g 1.2.3 h q # e <.( , , f i % . * 4 4 1 e v v 0 g e e w g 0 w g e 1 X.{.+.^.y Q ! P J ] ~.= f I < 3 1.=X1X9XlXfX",
"f ` y.' E +.t.T '.}.`.0.+ q i.9 q 8 2 0 k n h 8 g h h g X.q o i e - @ 3 i t : + O 4 5 3 3 j Z g h h h w h h n k h 0 | l.o.a.4 H . Q ! !.!.# D # #.5.P.1X7XfXfXlX",
") 0.p._ E ] ] J eX X0..X8.l 3 @.O 2 l  .-.-.{ g h 3 0 } 3 2 1 z o $ u 5 ; % : t % u u 3 @ 6 l q 0 w h n [ $.&.;.;.m e F A T 4 K E * > E u.x { N.J.1X1X7X9XfXfXlX",
"/ 8.) Y E !.] U ] f.C g.q 6 O O 2 l D | q.-.2.-.w 0 j 2 # @ u o 5 5 5 5 & t t $ 9 9 9 1 3 3 4 6 e v N $.=.7.7.<.<.N 8 r p P 5 H 5 H @.7 O.Z.B.*X:X7X9XfXlXfXfXzX",
"2.-.| I ' ] OXU ] ` `.f.6 x >XO.3 3 2 e e k v S v 8 V 8  X$ $ o 5 7 7 O * 4 : + t $ $ : 1 o O 6 g k [ $.&.$.*.#.*.s 8 v C G & 5 4 +.O O ..B.;X7XfXfXlXlXlXfXgXnX",
"T.k.2.q.e.y.] U ] s.f.9.x 8 j..X< o   # 8 8 8 8 e + # p ,Xy & % O 7 7 5 O * > & $ * : y & o O 5 0 g c n b c c c w - v d.9.p H 5 1 2 O tXkX:X:XhXgXlXfXgXgXgXxXDX",
";XJ.B.k.V.g.y.] s.U ` }.% # I u.z.l # # e e 8 e # + .   + 4 K . O u z 1 % 5 H > % * H y & * * 5 1 q g g n c c c r 8 ;..X/.K W @. .2.B.tX=X:XgXlXfXfXfXgXnXSXFXGX",
":X-X*XB.R.Z.q.Y 0.J f.f.% f J r.X.+ e V # e V # +     + % > >   - # - i f p 4 * = ! Q H * = = X @ 6 1 k h w h M <.c m C.(.R +.j.h.B.;X=X2X9XgX9XgXnXbXSXGXLXLXLX",
"gX*X;XJ.;XZ.-.z.d.) f.g.% > J ' V 2 D | < r 9 - $ # $ % * & & + X - r F 8.I u 1 $ * * * * * % ; $ O 3 e j h c c =.[ q.{.j.x W z.T.=X=X7X9XzXfXzXnXbXDXFXCXCXCXUX",
"jX=X8X:X;XT...R.;./ d.g.- , P 9.0 j h.| 8 # # $ : 9 & * % * * : - r d ;.w.e.| x 3 o $ y > X X = * % # 1 j v v v -.-.N 8.j.j.u.[ J.=X=X9X9XfXgXbXxX5XT.V.d `.l.%X",
"bX:X:X=X5X8X;X;XI.M.Q.M.r 9 i i 0 } q.Z r 8 # : $ y & % * & > a d s d N ;.2.h.2...g 2 e 9 % X % 4 * 3 1 u j k v ;.[ c h.k.m m V.=X1X1X1XgXxXbXFXtXqXMX>XKXwX%Xz.",
"SXDXDXvXjX;X;X-XE.T.N.2.# 8 e 0 S  .=.0 0 q + $ 4 y * = > H H J K F m M ..2.B.=X-X..6 3 2 # % : 4 5 : : 9 8 e h v -.[ =.;.M { 1.P.7XgX0XxXSXFXuXU.ZXMXqX XN wXCX",
"SXSXFXGXGXDXAXtX5XJ.1.{ 8 g {  .2.=.v 8 8 q + + y p * % H P H K 7 @.A ..1.1.=X:X=X=XB.{ 2 o   % > > t % # 1 q v h ;.{ M *.&.*.n 7X9X9XxXcXDXCX[ aXaXU.|.U.CXHXGX",
"vXFXFXSXFXFXFXDXvXjXJ.*X1.{ 1.2.=.{ h 0 2 9 + + 4 G * * K P H Q 7 Q @...B.=X:X:X:X:X7X;XB.6 @ @ : : : ; + # q k m 8 h N.6.0 :.5X9XzXxXjX3XN.aXMXwXM.wX>XAXLXGXGX",
"rXcXFXDXFXFXSXSXSXvX*X-XB.1.{ { { g g h 8 8 # $ % y * * H K y P Q @.6 ..1.:X:X:X:X:X7X8XqXR.u.a : : : % + # e j n c c #.*.H.yXyXfXzXxX5XpX>XLXKX`.aX$.rXAXvXvXjX"
};
