/* XPM */
static char *_644343233855[] = {
/* columns rows colors chars-per-pixel */
"80 80 256 2 ",
"   c #040501",
".  c #031904",
"X  c #181804",
"o  c #120D09",
"O  c #2E140B",
"+  c #321711",
"@  c #320B03",
"#  c #062704",
"$  c #162704",
"%  c #093704",
"&  c #183803",
"*  c #062914",
"=  c #073918",
"-  c #163A18",
";  c #162A15",
":  c #293705",
">  c #313014",
",  c #0F3926",
"<  c #3E372D",
"1  c #4C1807",
"2  c #4D3014",
"3  c #7A271B",
"4  c #6E3515",
"5  c #493626",
"6  c #593929",
"7  c #5B3536",
"8  c #483130",
"9  c #7C2B24",
"0  c #793626",
"q  c #643A3B",
"w  c #643739",
"e  c #6D382E",
"r  c #761C15",
"t  c #194405",
"y  c #195707",
"u  c #194418",
"i  c #0B5212",
"p  c #284605",
"a  c #384905",
"s  c #285608",
"d  c #375708",
"f  c #274815",
"g  c #374A17",
"h  c #295815",
"j  c #385717",
"k  c #166A08",
"l  c #1A6817",
"z  c #106F0D",
"x  c #28650A",
"c  c #396717",
"v  c #277815",
"b  c #367419",
"n  c #316C0D",
"m  c #16462A",
"M  c #104F2A",
"N  c #345428",
"B  c #346E24",
"V  c #0D6922",
"C  c #464A07",
"Z  c #475706",
"A  c #484B16",
"S  c #574918",
"D  c #475717",
"F  c #56561A",
"G  c #535807",
"H  c #67461D",
"J  c #496606",
"K  c #596909",
"L  c #466519",
"P  c #576817",
"I  c #5A7619",
"U  c #4D7513",
"Y  c #6A740A",
"T  c #646B17",
"R  c #677617",
"E  c #686F0E",
"W  c #4B4624",
"Q  c #465725",
"!  c #575827",
"~  c #544C34",
"^  c #764627",
"/  c #684639",
"(  c #794837",
")  c #6A4F2E",
"_  c #496825",
"`  c #576726",
"'  c #587728",
"]  c #577734",
"[  c #4E6F2E",
"{  c #687726",
"}  c #6C732C",
"|  c #673D44",
" . c #5F3946",
".. c #5C4F48",
"X. c #6D4545",
"o. c #694849",
"O. c #744C4D",
"+. c #764A48",
"@. c #6B5648",
"#. c #7B524D",
"$. c #745349",
"%. c #674B53",
"&. c #764D53",
"*. c #794E52",
"=. c #774D58",
"-. c #755353",
";. c #7C5354",
":. c #7E5A54",
">. c #7C545A",
",. c #7D5A5B",
"<. c #755658",
"1. c #6B5659",
"2. c #5A6F45",
"3. c #736D51",
"4. c #795A61",
"5. c #861C19",
"6. c #8B231D",
"7. c #83281E",
"8. c #992A1F",
"9. c #8C2523",
"0. c #852B24",
"q. c #8C2A25",
"w. c #8C2D29",
"e. c #852B27",
"r. c #932A25",
"t. c #922B2A",
"y. c #942926",
"u. c #8B322C",
"i. c #863428",
"p. c #92332C",
"a. c #99342D",
"s. c #893A33",
"d. c #983832",
"f. c #A23C34",
"g. c #8B4D37",
"h. c #97653B",
"j. c #924E2F",
"k. c #824C48",
"l. c #865647",
"z. c #825554",
"x. c #825A54",
"c. c #81565A",
"v. c #835A5B",
"b. c #8A5957",
"n. c #90574F",
"m. c #AB5B49",
"M. c #B6594D",
"N. c #BA5C52",
"B. c #87635A",
"V. c #95664B",
"C. c #A46A4D",
"Z. c #A76B51",
"A. c #BB6456",
"S. c #A97554",
"D. c #845A62",
"F. c #8B6363",
"G. c #937566",
"H. c #C2665A",
"J. c #678617",
"K. c #75900F",
"L. c #5E8536",
"P. c #779726",
"I. c #6F8D33",
"U. c #7CA21D",
"Y. c #71904E",
"T. c #7CA351",
"R. c #6A8C56",
"E. c #238111",
"W. c #839A12",
"Q. c #8FAC18",
"!. c #A7BC19",
"~. c #88972E",
"^. c #91AD2F",
"/. c #A8BA2E",
"(. c #AAC525",
"). c #8B8B53",
"_. c #8E9456",
"`. c #8E904F",
"'. c #AE8957",
"]. c #8FAD4E",
"[. c #A8B650",
"{. c #91906B",
"}. c #AE8D67",
"|. c #94AD6E",
" X c #B0A860",
".X c #CB9971",
"XX c #B0C64E",
"oX c #B3CD72",
"OX c #9CC26B",
"+X c #C4DA79",
"@X c #C4D43D",
"#X c #AE9E88",
"$X c #B09F8A",
"%X c #B2A38A",
"&X c #B0B08F",
"*X c #A1B694",
"=X c #C9B797",
"-X c #B5CC8E",
";X c #BCDAA1",
":X c #CBD88D",
">X c #CEDB95",
",X c #CEDC9A",
"<X c #CAD697",
"1X c #D3DE95",
"2X c #D3DD9C",
"3X c #DADC9A",
"4X c #D6D69A",
"5X c #CDD094",
"6X c #E6C59C",
"7X c #E0D89B",
"8X c #CAE397",
"9X c #D2E195",
"0X c #D3E19B",
"qX c #D9E59A",
"wX c #CFE78C",
"eX c #CCD7A4",
"rX c #D3DCA2",
"tX c #DBDAA3",
"yX c #D4DCAB",
"uX c #D8D9AA",
"iX c #D6DBB5",
"pX c #CECDAE",
"aX c #E4DAAB",
"sX c #E5DEB2",
"dX c #E4DBBA",
"fX c #EDCBA4",
"gX c #D5E2A2",
"hX c #DAE3A3",
"jX c #DBE3AC",
"kX c #D9E7A7",
"lX c #DBE5B7",
"zX c #CDE6A5",
"xX c #E1E1AA",
"cX c #E6E7AC",
"vX c #E4E7B9",
"bX c #E8F4B4",
"nX c #DBDCC9",
"mX c #DCE5C6",
"MX c #DBECD2",
"NX c #E5E9C8",
"BX c #EAF4CA",
"VX c #E7EAD5",
"CX c #EBF7D8",
"ZX c #F4FADA",
"AX c #F3F7CB",
"SX c #F5FDE4",
"DX c #FBFEE4",
"FX c #F5FCEB",
"GX c #FCFEEC",
"HX c #F3F5E8",
"JX c #FCFEF4",
"KX c #F5F5FA",
"LX c #FCF5FE",
"PX c #FEFDFD",
"IX c #F5F9F5",
"UX c #ECF3E8",
/* pixels */
"T.L.I.Y.T.L.L.R.*XE.R.zXUXSXFXJXJXCXiX3.Y.|.ZXDXpXUXIXPXFXJXVX3.3.{.=XVXPXJXPXUXJXPXJXHXJXJXnX#XR.2.*XHXFXCXFXSXpXMXZXeX_.Y.Y.bXPXKXPXIXFXMX|.L |.|.J.L.L.T.L.L.",
"L.Y.y [ _ t L.R.n h R.zXFXIXPXJXVXJXCX*X3.pXDXSXIXPXKXPXIXFXmXR.MXMXZXGXPXJXJXPXIXPXPXGXJXJXGXVXMX*X*XUXIXIXIXFXUXMXZXMXT.R.rXZXPXPXPXPXFXSX*X_ j ' T._ c L.c ] ",
"Q c # & t . N R.R.*X-XmXSXHXIXPXHXJXDXCX|.iXHXGXJXPXIXPXPXJXFXiXJXJXJXJXJXPXPXPXPXPXPXPXPXIXJXJXJXMXVXKXKXIXKXKXKXIXIXIX*X*XDXDXKXPXLXIXJXSXiX-X|.] ' # # t # % ",
"& p c 2.N u # R.;XCXCXUXJXPXPXLXPXHXGXGXVXVXGXJXIXPXKXPXPXJXJXGXHXFXGXJXJXPXIXIXPXPXPXPXPXJXIXIXIXFXPXPXPXKXKXPXKXPXKXIXHXSXFXFXPXPXIXHXGXSXCXSXBX|.p % a [ _ j ",
"|.2.N 2.- N . *XMXCXFXJXPXPXLXLXPXPXPXHXJXGXJXJXPXPXPXKXPXPXJXJXJXJXJXJXJXIXLXPXKXKXKXPXPXPXPXIXJXJXIXIXPXPXPXPXPXPXKXIXPXJXHXJXPXPXJXGXGXGXDXSXZX;Xg j g Q L j ",
"BXlXR.|.R.N N *XSXCXIXGXIXLXLXPXLXPXPXIXJXPXJXPXKXPXPXPXPXPXPXJXJXPXPXPXLXPXPXPXPXPXPXLXLXPXPXPXJXJXFXJXPXPXPXPXPXPXKXPXIXVXDXHXnXGXGXHXHXGXGXZXCXeXQ g D Y.Y.|.",
"eXCXCXMXnX- ; *XSXFXJXPXPXPXLXLXPXPXPXPXPXPXJXLXPXPXPXPXPXKXPXIXPXPXPXPXPXPXLXKXPXPXPXLXLXPXPXPXGXGXJXJXPXPXIXPXPXIXGXGXVXiXNXNXiXdXVXdXiXNXZXDXSXiX[ g R.<X-X8X",
"zXmXMXZXUX*X$ pXSXSXCXHXPXLXLXLXLXKXPXLXPXPXPXIXPXKXPXPXPXPXPXKXKXJXPXPXPXPXPXPXPXPXLXPXPXPXPXPXGXHXGXJXJXJXPXPXJXHXGXVXlXuX-XbXvX5X5XiXiXiXNXZXZXlXR.~ -XhXkX8X",
"zXlXyXlXSXCXiXpXmXBXDXGXJXLXLXLXPXPXPXPXLXIXIXPXFXIXJXIXIXKXPXPXPXPXPXPXPXPXPXPXUXKXLXPXPXPXPXPXJXPXPXPXPXPXPXJXJXGXDXBXuX,XhXbX7X1X3X4XuXyXyXiXlXiXeX<X,X9X9X9X",
"zXlXeXyXBXCXzXpXlXiXnXZXGXJXPXLXKXPXPXPXPXLXPXPXJXJXJXIXJXPXPXPXLXPXLXPXPXLXPXPXPXPXJXJXIXPXPXPXPXIXIXPXPXIXPXPXHXZXBXsX4X5X1X9X1X1X3X3XtXrXyXyXlXyX<X<X>X9X9XwX",
"2XkX,XeXlXlXeXrXeXeXyXNXDXJXPXPXIXJXPXPXPXPXGXVXGXGXGXGXJXPXLXLXPXPXPXPXPXIXHXHXJXGXJXJXHXGXJXJXLXLXLXPXPXLXLXPXIXHXNXiX4X4X1X1X1X1X1X2X2X2XrXrXgXgX0XqX9X:XwX9X",
">X0X,X,XgXgXrXrXeXrXlXBXGXGXPXJXJXGXGXJXJXJXVXnXZXZXBXNXGXFXUXKXPXPXPXPXJXIXGXHXVXNXGXGXNXVXDXSXPXPXPXPXPXPXPXPXJXCXNXiXjXhXqX1X1X1X1X1X9X2X2X2X<X2XhXqX9XwX:XwX",
">X0X0X8XrX2XrXkXtXjXvXAXZXGXJXJXSXVXNXGXGXZXNXiXBXBXuXiXDXJXIXPXKXLXPXPXJXJXGXGXiXiXBXZXiXiXBXNXHXJXGXHXJXPXPXIXVXmXiXpXeXrX>X:X9X2X1X9X2X1X2X2X>X1XhXkX0X>X:X1X",
"9X9X0X2X2XrXrXjXrXjXlXlXBXDXJXJXZXvXiXAXZXnXiXiX4XuXuXvXZXDXJXLXKXLXPXPXJXJXDXZXmXiXjXiX<XeXiXeXlXiXmXVXCXCXZXDXMXmXeXeX,X2X<X:X0X0X2X2X2X2X9X2X>X2XqX0X0X1X9X,X",
"9X8X2X0XgXrXrXrXrXrXrXyXNXDXJXSXAXxXuXNXNXiXiXvX5XhXcXuXpXpXnXUXPXPXPXPXGXHXNXmXvXjXyXrX,X2X2X<X8X,X<XkXlXlXlXBXlXlXgXrX8X9X9X9X0XeXrXrX,X0X0X1X0X1X8X0X0XzX,X,X",
">X<X,X2XrXgXrX<XhXhXyXsXVXDXGXVX5X&X%X&X=XpXuXsXtXtXtXjXNXAXSXSXIXJXJXGXHXVXNXlXeXyXkXhXrXrX2X2X0XqXqX0XgXkXkXrXjXkXgX,XqX9X9X9X0XrXrXrXrX2X2X0XgX9X,X,XgXkXeX,X",
",X<XkXqX>X1X:XqXuXjXvXpXdXpX&X3.o.~ > 2 o.:.G.&XpXAXdXpXBXZXAXZXAXZXDXGXJXHXVXiXyXrXqX9X9X2X0X2X8X2X2X0X0X,XrXrX2X,XrX,X0X0X2X1X3X1X4X4XrXeXrX,X8X8X2X0X2X2X2XrX",
"eXrXcX1X:X9X:X<XrX5XdXpXG.6 / @.o.&./ q $.+./ / G.#XfXdXpXvXAXvXxXBXDXGXZXnXnXlXyX2X1X9X9X8X0X0X2X2X2X2XrX2X0X2X2X0X2X0X2X2X2X2X1X1X3X3X2XrXrXrXrX8X9X1X2X1X2XrX",
"4X2XqX1X1XqX1X:X4XNX&X/ ~ @.-.-.-.4.$./ #.:.+.$.X.@.{.&XpXiXlXrXyXNXZXDXCXVXVXAXrXrX9X9X9X9X0X0X0X2X2X0X0X2X2X0X2X2X2X2X2X0X2X2X1X4X2X4X2XrXrX,X2X9X1X1X1X3X3X4X",
"2XqX9X1XwX9X2XjXvX&X@.+ ,.F.-.>.=.D.#.q ( +.l.x.v.-.o.,.=XdXuX,XtXxXNXAXZXDXZXZXrX0X1X9X9X2X2X8X2X2X2X2X2X2X2X2XgX2X2X2X2X2X2X2X1X3X1X1X2X2X,X4X2X2X1X1X3X3X4X3X",
"qX9X9X9X1X1X7XcX&X@.~ %.D.=.D.| *.z.k.( +.l.+.( z.F.;.5 G.pXdXuXyXeXeXiXNXAXNXlXrX2X0X9X9X2X0X,X2X2X2X2X0XrX0X2X0X2X0X2X2X2X2X2X,X,X,X2X8X8X8X8X9X1X1X2X3X3X3X3X",
"qX1X:XqX1X1XtX6X@.O.*.| =.D.F.k.b.z.e e g.B.b.b.*.;.F.o.%.G.dXnXtX4XeXuXyXiXrX<XrX2X8X2X1X8X,X0X0X2X2X2X2X2XrX2X2X2XrX2X2X0X0X2XrX8X9X8X8X8X8X8X8X0X0X4X1X3X3X3X",
"2X>X4X0X1X3XtX{.+.b.| 8 =.D.+.b.n.l.g.( ( ( l.V.n.| v.-.&.@.=XdXsXhXrXrXyXrXrXrX2X2X2X1X1X2X8X,X2X2X2X0X0X2X2X2X2X2X2X2X2X0X2X2X8X8X8X8X8X8X8X8X,X0X0XrX4X2X4X3X",
",X<X2X2X4XaXpX) | D.=.w D.D.z.l.( g.S.}.C.g.l.V.z.z.F.O.,./ G.pXtX<X5X4XrXjXkXhX,X1X,X2X,X1X2X,XrX0X2X2X2X2X0X2X0X2X0X2X2X,X0XrXzX8X;X8X8XwXwXwX8X8X,XzX2X0X3XqX",
"zXeX<XjXtXaX}.6 $.#.O.w *.k.l.k.g.S.h.Z..X.Xj.g.l.B.l.+.#.x.( 5XcXtX0X4X0X0X>X3X2X2X9X2X8X2X0X9X2X2X2X2X2X0X0X2X<X,X0X>XhX2X>X<X;XzX;XOXOX-X-XOXY.T.zXzX;XgXwXwX",
"eXeXrXyXaX4X3.~ :.x.+.w k.+.n.m.h.h.1 @ h..XS.g.l.x.z.X.$.x.@..XuX5X5X4XkXqX:XqX2X2X,X0X2X2X2X8X2X0X2X,X2X2XrX2X<X2XhX>X2X,XgX,XzX-X8XT.v OXwXT.y U OX8X>X8XwXqX",
"rXeXgX5XaX&X2 @.B.F.k.w k.g.V.S.j.4 @ @ H '.'.) l.b.#.( +.B.( {.vXuXjX0XqX1X:X>X2X0XrXrX0X0X9X8X2X0X2XgX2X2X2X2X>XgXkX4X<X>XhX,X-XT.T.I.n J.E.P.I L.|.kX8XwXwXwX",
"kX,X:X5XcX=XA / b.v.+.e #.g.l.S.h.i.1 1 1 S.S.h.l.z.z.X.;.B.#.B.3.5XjX<X1X1X1X1X0X,XrX0X2X2X9X>X2X2X2X2X2X0X0X2X2XgXkX1X2X>X2X-X' U T.^.U.^.Q.^.].T.].kXoXwX+X+X",
"oX+XqX7X+X XS ) :.x.+.w k.k.l.V.h.'.4 @ h..XV.l.x.x.c.X.>.F.v.@.o |.jX<X:XqXqX1X2X2XrXrX2X2X9X>X2X2X2X2X2X2X0X2X0XgX0X,X0X4X>X_.$ I.^.W.^.(.^.!.^.P.I.oX].[.XXXX",
"[.XX+X X X`.S ) $.;.&.w *.k.k.g.H h.h.h.'.S.g.l.x.v.D.%.D.D.v.o.O #XcX2X1XqXqX9X2XrXrXrX2X,XwXwX2X0X0X2X0X,X2X2X0X0X4X,XhX2X:X`.E ~.[.XXQ.K.(.W.Q.Q.~.[.K.W././.",
"XX^.^.~. X XG ) x.;.=.| | b.b.e 1 1 ^ ^ 2 @ 2 $.x.,.=. .D.4.4.-.> &XyX5X1XwXqXqX8XrXrXrX0X,XwX>X2X2X2X2X2X2X2X2X4X0X>X4XhX3X0XY.C ~./.(.!.!.(.Q.Q.Q.^.^.U.^.(.@X",
"~.^.XX[.[.'.1 V.B.x.=.w | F.F.w ^ 2 H 2 H 2 ( :.;.>.&. .D.=.=.%.$ #XsX3X3X:X:X:X0XrXrXrX2X0X9X9X2X0X2X2X2X2X2X2X>X2X,X2X2X3XcX].C ~.@X!.!.!.!.(.Q.Q.^./.(.(.(.!.",
"^.^.[.[.[.E 2 o.:.,.&.q O.O.;.#./ h.B.V.S.G.V.B.:.;.$.| *.>.D.-.+ %XdX4X1X:XqX2XrXrX3X3X1X1X8X,X2X2X2X2X2X1X0X0X,X,X2X2XrX4XxX`.K ^.K.W.Q././.K.K.K.Q./.!.Q.(.(.",
"Y K ^.[.@X~.> <.;.;.O.w O.;.;.;.6 6 2 1 6 / $.$.x.;.;.X.-.;.D.>.+ %XcX4X1X>X0XrXrXrX3X1X1X2XrX0XrX2X2X2X2X2X1X1X9X>X2X0X4XtXxX_.Z U.K.K.~./.Q.K.Q./.^.U.U.Q.Q.Q.",
"J J ].[.^.h.5 @.,.,.*.q O.;.;.;.x.l.$.6 ( $.x.x.:.$.#.X.O.;.;.$.+ %XcX4X:X9X0XeXrXtX3X1X1X9X2XrX2X2X2X1X2X8X2X9X0X,X1X3X2X4XxX`.Z ~.^.^.K.K.J.Y W.].^.K.U.U.U.^.",
"J.].oX[.Y C 5 1.,.>.*.w O.*.;.;.B.B.+.6 / $.x.B.x.z.;.X.;.;.,.-.+ %XcX4X1X9X0XgXtX4X3X1X1X1X0XrX2X3X2X2X1X2X9X9X1X,X4X2XrX4XcX_.n P.^.U.Q.Q.K.J.Y ^.[.P.J.J.K.U.",
"P.P.L.I.~.T 6 %.,.,.&.q *.k.z.z.#.#.$./ v.B.F.F.F.B.D.;.v.v.v.$.+ %XxX4X:X9X0XgXrXtX3X1X1X2X,XrXrX3X2X2X9X2X1X,X9X,X2X3X4XtXxX`.J ].[.[./.^.U.K.K.J.~.].J.% & d ",
"n t d I. X~.> 4.,.,.&.q +.*.z.;./ o.*.+.D.D.z.+.;.;.;.X.-.$.;.X.+ %XsX4X:X9X0XrXrXrX3X1X1X2X8XrX2X2X2X2X1X0X0X9X2X2X2XrXtX4XxX_.Z ].U.[.XX^.~.K.P.P.].I.' L.L.t ",
"I.& s I.].~.> %.4.,.-.q #.#.z.z.>.=.o.7 o.X.O.+.*.O.$.| +.X.X.7 + %XcX4X:X9X0XrXrXtX3X1X1X9X,XzXrX3X2X2X2X0X1X,X9X,X2X4X4XtXxX_.: d p J T.XX^.P.J.I J d ' T.T.[ ",
"T.d & p & $ ~ 1.4.4.=.q #.#.z.#.D.D.D.| >.>.,.c.>.x.v.O.;.#.$./ + %XxX4X>X9X0XrXrX3X3X3X1X1XrX8X2X3X2X2X1X2X9X1X1X,X2X3XrXrXjX_.& p p t x J.U K.P.U & p s _ L.T.",
"L.I.s a p $ W %.<.4.&.w z.#.#.z.D.D.=.| =.>.D.>.v.;.:.+.;.$.:.+.+ #XaX4X1X:XqX,XrXtX3X1X3X9X2XrX2X3X2X2X2X9X,X9X1X,X2X2XrX4XxX{.X & & D d & d J.I J.s d J p L L.",
"OXT.].I.I.} ~ %.%.=.o.7 z.z.v.v.D.D.=.| =.=.D.>.v.,.>.X.;.;.x.@.O %XaX2X9X9X2X,XrXyX3X1X1X9X0XrX2X2X2X1X2X2X9X2X9X,X2X3X4XtXxX_.> N > L K d K R U K J P L.d t s ",
"T.U L.Y.[.`.< %.%.=.O.w *.z.;.z.D.D.=.| =.>.D.>.v.;.:.X.O.;.;.X.O #XcX4X:X9X,X,XrXtX3X1X3X9XrX8X2X4X2X2X1X0X9X1X1X>X2X3X4XrXxX{.g 2.Q ` ' T R I K K { R I.I p J ",
"U y # I ].F <  .%.>.&.7 #.k.#.#.D.>.=.| =.=.c.>.v.;.>.X.;.#.:.+.O #XsX4X9X>XgXrXrX3X3X1X1X8X,XrXrX3X2X2X9X,X9X,X,X,X2X2XtX4XxX_.> ] } ` P K R K E I P.{ I.J.J J.",
"J ' a G Y C 6 o.7 %.&.w ;.x.x.v.v.v.=./ *.;.;.x.x.;.>.+.;.#.;.$.O #XcX4X1X1X,X,XrXtX3X3X1X1XgXrXgX4X2X0X2X9X,X0X2X>X2X2X4XtXxX_.a ` } T E G E E T G P R R R R K ",
"I I.{ K K G 5 %.7 O.*.7 O.;.x.:.v.v.;.q ;.;.v.>.v.,.x.X.$.;.x.o.O #XaX2X1X1X2XeXrXrX3X1X1X1X,XrX2X2X2X2X2X1X9X1X2X1X2XtXrX4XaX_.S T T E E K E R K G K { K K J.K ",
"I K P T E G 2 %.7 *.c.7 O.#.;.#.v.x.-.q O.;.:.;.x.;.;.X.;.#.:.O.O #XsX4X1X9X0XrXrXrX3X1X1X1X2X2X2X2X2X2X1X0X9X1X0X>X2X2XtX4XxX_.E E E E Y Y Y R R h.} R K G E K ",
"U J K } R C 5 <.8 O.;.w O.z.v.;.x.v.#.q #.;.c.x.v.;.:.X.*.;.;.O.O #XaX2X1X:X8X2XrXtX3X1X1X1X2X2XrX3X1X2X2X0X,X1X9X,X2X3X4XtXxX`.K E Y E Y Y Y Y K } T K } R G E ",
"# D { { } ! 5 o.8 -.$.w +.D.b.c.v.c.#.q *.z.c.z.v.z.;.X.*.;.c.*.O $XdX2X4XqX8X,XrX4X1X7X1X1X0XeX2X3X2X2X2X2X9X,X,X,X4X0XtX4XtX).} } E G Y K R Y R Z G Z a G E T ",
"  f L ` } ! 5 o.5 $.#.w X.D.c.b.c.c.*.q *.;.v.c.v.c.;.X.*.*.c.$.+ %XsX4X1X8XrXrXrXqX7X1X1X8X0X8XtX2X2X2X1X0X1X9X>X1X2XhX4X4XtX).` C C : K K J I I p a G G P T T ",
". g ' R ` ! 5 %.7 x.$.q | c.z.z.c.v.;.q *.;.c.c.c.z.;.X.*.;.v.;.+ $XvX4X1X9X0XrXrXtX7X1X1X1X0XrX2X3X1X2X1X2X1X9X9X,X2X3XrX4XtX).D : : a P ] ' L.` g _ ] ` P Z Z ",
". Q ' D Z 2 < o.o.v.$.w =.c.*.z.v.c.;.q *.;.c.c.D.c.>.X.O.;.v.O.+ $XxX4X1X9X0XrXrX2X1X1X1X1X0X,X2X2X2X2X2X2X8X2X1X,X2X0XtX4XtX).F ` G a L D ] Q - f [ ] [ ' P Z ",
". & : C F A 5  .@.v.+.w | c.=.z.c.v.*.q O.;.v.c.v.c.;.X.*.;.v.;.+ $XdX4X1X9X0XrXrXrX3X1X1X1X9X0X2X3X1X2X2X9X,X9X1X2X2XhXrX4XtX).P } P a d p j & & - u N _ ' I d ",
". X p P ! A 5 o.&.B.X.q z.c.=.c.v.c.*.w *.;.v.c.v.c.>.X.=.;.c.-.O $XdX4X1X9X0XeXrXtX3X1X1X1X2X2XrX2X2X2X2X2X9X1X2X1X2XhXrX4XtX).P Z D d L _ N u f - - f h s d d ",
"# ; ` } } > 5 %.-.v.X.w =.c.*.v.c.v.*.q *.;.v.z.D.v.v.+.*.;.c.;.+ $XcX4X1X0X0XrXrX3X3X1X1X9X0XrXrX2X2X2X1X1X1X2X2X,X3XhXtX4XaX).T Z I P ' ' c t & u t t p s n n ",
"# g ] ` A 2 8 o.-.>.X.q =.D.,.b.v.v.*.q *.;.v.v.b.v.c.X.;.z.v.;.+ $XsXrX1X9X0XrXrX3X7X1X1X2X8X,X2X3X2X2X2XqX,X9X9X1X2XhXhX4XtX).F { } { I L ' % t h t t h _ L.U ",
"* N [ ' > > 8 %.>.;.O.w &.>.>.;.F.c.O.| ;.O.c.D.v.z.c.+.z.v.v.;.O $XsX4X4X1X8X2XrXtX3X1X1X1X,XgX2X4X4X1X1X,X1X1X0X0X3X0XrX4XtX).` ! } P P ' I _ s s t # N R.[ f ",
", N ] ] g X < 4.>.;.O.q &.>.,.,.v.c.*.w O.*.c.c.F.F.D.*.v.D.F.:.O #XsX4X1X9X2XeXrXrX3X1X1X9X0X2X2X2X2X2X2X1X,X2X0X0XrX0X4X4XuX).~ X > : ` P L.] ] t % % u - # ; ",
"= m h D g X 8 1.<.>.&.q &.>.v.;.;.v.O.7 X.=.v.;.*.O.O.| O.*.;.X.+ $XdXeX1X9X,X2XrX3X7X1X1X1X9X0X2X2X1X2X1X2X1X8X0X0X2X3X4X4XuX{.+   o   g D ] [ _ u - . . *   * ",
"* u t t & : < ..<.>.O.w &.>.;.:.z.c.O.7 +.*.v.;.;.*.*.X.O.O.;.X.+ #XsX4X1X9X0XrXrX3X3X1X1X1X1X2XrX3X2X2X2X8X9X2X0X0X2X3X4X4XaX{.o   ;   . & f & u - , * . , , * ",
"M M i % & > .. .<.<.&.w &.=.>.;.v.v.*.q ;.*.v.v.v.c.v.O.z.c.D.;.+ %XsX3X2X9X0XrXrXrX3X1X1X9X0XrX2X2X2X2X1X2X1X1X0X1X4X2XrX4XxX{.;   o ;   . . # u = m , , , , , ",
"M M i t & $ < 1.<.=.O.7 =.=.>.:.F.c.O.X.;.*.c.F.c.;.;.X.=.;.v.O.+ $XsX4X1X9XrXrXrXtX3X9X1X,X0X,XrX3X2X0X2XqX2X9X2X,X2XhX4XtXcX{.o . * , # * # * u , , , , m m , ",
"= M i t - $ < 1.1.>.O.w &.=.;.:.B.,.O.q O.*.v.v.c.c.c.X.;.z.b.*.+ $XcXtX9X0X0XrX4X4X1X1X1X1X2X2X2X4X3XqX2X2X1X1X,X>X4X3X3XtXxX{.X # - , - N M = , m , = * u u t ",
"M V i y f u 8 ..1.<.&.7 &.=.c.;.-.:.$.6 o.-.,.-.,.;.c.X.;.>.v.O.+ $XsXaX3X3XtXrXaX7X7X7X7X3XtX3XtXaX3XtX3XtX3X3X3X4X3X7XaXaXcX{.# . - = u M , , M M M = i % # % ",
"M i i M : $ > @.-.<.X.w =.c.z.k.$.) ..! ..2.@.3.,.,.;.O.;.v.z.$.1 %XfX6X6X6XfXfXfXfX6X6X6X6X6X6X6X6X6X6X6X6X6XfX6X6X6X6X6XfX6X}.; * m m m M m * . * = i u % & # ",
"= i i i f f 5 ] 2.:.+.w O.D.c.X.~ Q Q Q N ..2.1.@.$.+.X.X.#.#.+.2 V.C.V.C.C.C.C.Z.C.S.C.C.C.C.C.Z.C.C.C.Z.C.Z.C.C.C.Z.C.Z.S.S.( > ; m M M m , * . . # = M u f f ",
"# u V V V h N ] ~ B.k.e | 1.2.~ W j N N N W ~ ~ 3.:.#.+.X.O.l.z.3 m.m.h.m.A.C.m.M.m.C.m.M.m.m.m.M.m.M.m.m.m.m.M.M.M.m.m.m.A.A.n.5 O . ; * * ; o . . % u l V l l ",
"i V V V V l h B ~ X.e e 6 ..~ g Q j g g g g W W o.#.l.e e s.k.n.r m.N.M.N.H.A.M.N.N.N.M.M.M.M.M.M.M.M.M.N.M.M.M.H.A.N.m.N.H.A.m.4 o               o $ N l i i V ",
"i B l z h h s c ! ~ W 6 W W W g N j j h g g A 5 / e e e 9 e s.s.7.a.a.9.y.f.f.d.a.a.a.y.a.y.y.y.p.i.u.p.p.p.u.p.t.a.u.q.u.d.s.e.9 2 @       o @ @ o o g h k i i ",
"i l l y s n d Q Q A S ~ W W W A s s s h g D ~ S 4 e 0 9 9 s.s.u.w.5.6.5.6.9.9.t.9.r.r.9.8.y.9.9.q.0.6.0.0.0.0.7.r 3 0.7.u.u.9.e.s.0 ^ 6 2 + 1 1 1 1 1 2 f y i k ",
"y l k x x n n c j d W Q Q A D D s y s s j D S H 6 0 i.i.d.d.s.u.e.3 e.u.w.e.5.u.p.p.w.t.y.q.q.9.u.u.w.u.u.u.u.u.9 q.0.0.p.u.e.t.t.e.s.g.g.e 9 s.i.0 ^ S C a d n ",
"i k x v n n x x s s j j a j Q d s y s s d g A 6 4 0 i.w.d.d.d.e.s.e.s.e.e.u.9 e.0.e.0.0.0.0.e.0.0.6.9.0.0.0.0.6.w.p.0.0.9.7.r 9.a.3 3 s.l.0 e.s.0.4 H S F D G Z ",
"z z k k z E.k k b x s y s s n c x x x s a A S S 0 3 6.f.f.6.6.p.i.9 3 9 9 u.s.s.9 u.w.9 9 u.s.w.9.9.y.t.t.t.t.t.t.9.9.9.9.t.t.t.t.9.r r 0.j.j.3 0 H ! F F Z C 2 ",
"z z z z z E.E.E.E.v l k y s n v x b c d d A S 4 4 i.f.f.8.a.8.7.e.9 9 9 9 u.s.e.9 w.u.e.e.u.w.e.q.t.t.t.y.t.t.t.t.t.9.9.9.y.t.t.t.9.q.q.7.j.j.g.H ! ` ' L D C S ",
"v k y k v E.E.v b b h y y h c c b b _ c A A H 4 3 f.f.y.8.a.p.7.q.7.7.0.e.w.u.t.9.9.t.t.t.t.t.9.p.w.t.9.q.9.0.0.w.t.9.9.q.q.u.t.r.r.a.u.i.7.i.( ) _ B B B b D C ",
"B s y k v E.v v b B c s a d c c n _ U D D S H 4 j.a.6.6.r.p.i.0.w.9.9.t.9.t.d.t.9.9.t.t.t.t.y.r.u.e.e.e.e.0.0.7.s.u.w.w.e.w.u.u.q.9.p.p.7.4 4 ^ ! _ B v B b c d ",
"! A d c v v v U ` D A A A C d c d L L D A S ^ j.m.y.5.5.r.7.7.i.p.r.p.a.r.p.a.r.t.t.9.9.r.r.r.p.0.9 i.9 i.9 i.i.s.u.i.i.9 9 i.i.t.9.e.t.w.9 3 4 H D c B b c j d ",
"A D ` [ b v b _ D D A F S A j L d c d C S ) j.^ 0.9.y.9.6.3 9 3 u.q.a.a.q.r.p.r.t.9.9.9.r.6.r.a.3 9 3 9 i.i.i.u.s.u.i.0.0.0.0.q.d.t.w.t.u.w.6.7.4 H ` L j s d Z ",
"f g Q L b b c d a a h j S S S A D D A C S ^ ^ 9 r 9.a.t.0.9 9 0 0.0.p.i.0.7.i.7.u.7.0.q.i.q.0.u.9.6.9.6.0.r.r.r.t.a.r.9.7.6.6.0.t.t.w.s.t.a.y.6.r 4 H H D A A A ",
"& p a A L _ d p t s h h D S F C P D A A S ( ^ 9 9.t.9.9.e.i.i.s.4 3 i.i.3 3 3 3 0.3 7.p.p.0.7.i.r.9.r.8.6.6.6.6.a.t.r.6.6.6.6.6.5.9.w.9 e.t.y.5.8.7.4 H ) F S C "
};
